<svg width="10" height="10" viewBox="0 0 10 10" fill="none" xmlns="http://www.w3.org/2000/svg">
<path d="M10 2.22222V8.88889C10 9.19444 9.8912 9.45602 9.67361 9.67361C9.45602 9.8912 9.19444 10 8.88889 10H1.11111C0.805556 10 0.543981 9.8912 0.326389 9.67361C0.108796 9.45602 0 9.19444 0 8.88889V1.11111C0 0.805555 0.108796 0.543981 0.326389 0.326389C0.543981 0.108796 0.805556 -7.45058e-08 1.11111 -7.45058e-08H7.77778L10 2.22222ZM8.88889 2.69444L7.30556 1.11111H1.11111V8.88889H8.88889V2.69444ZM5 8.33333C5 8.33333 5.11574 8.33333 5.34722 8.33333C5.5787 8.33333 5.85648 8.1713 6.18056 7.84722C6.50463 7.52315 6.66667 7.12963 6.66667 6.66667C6.66667 6.2037 6.50463 5.81019 6.18056 5.48611C5.85648 5.16204 5.46296 5 5 5C4.53704 5 4.14352 5.16204 3.81944 5.48611C3.49537 5.81019 3.33333 6.2037 3.33333 6.66667C3.33333 7.12963 3.49537 7.52315 3.81944 7.84722C4.14352 8.1713 4.53704 8.33333 5 8.33333ZM1.66667 3.88889H6.66667V1.66667H1.66667V3.88889ZM1.11111 2.69444V8.88889V1.11111V2.69444Z" fill="#424753"/>
</svg>
