<svg width="32" height="32" viewBox="0 0 32 32" fill="none" xmlns="http://www.w3.org/2000/svg">
<rect x="1" y="1" width="30" height="30" rx="15" fill="#EBEEF4"/>
<rect x="1" y="1" width="30" height="30" rx="15" stroke="white" stroke-width="2"/>
<path d="M6.85849 17.892V12.8636H8.12979V17.892H6.85849ZM4.97994 16.0135V14.7422H10.0083V16.0135H4.97994ZM14.6461 11.7273V19H13.1085V13.1868H13.0659L11.4004 14.2308V12.8672L13.2008 11.7273H14.6461ZM16.3746 19V17.892L18.9634 15.495C19.1836 15.282 19.3683 15.0902 19.5174 14.9197C19.6689 14.7493 19.7837 14.5824 19.8619 14.419C19.94 14.2533 19.979 14.0746 19.979 13.8828C19.979 13.6697 19.9305 13.4863 19.8335 13.3324C19.7364 13.1761 19.6038 13.0566 19.4357 12.9737C19.2676 12.8885 19.0771 12.8459 18.864 12.8459C18.6415 12.8459 18.4473 12.8909 18.2816 12.9808C18.1159 13.0708 17.988 13.1998 17.8981 13.3679C17.8081 13.536 17.7631 13.736 17.7631 13.968H16.3036C16.3036 13.4922 16.4113 13.0791 16.6268 12.7287C16.8422 12.3783 17.1441 12.1072 17.5323 11.9155C17.9206 11.7237 18.368 11.6278 18.8746 11.6278C19.3955 11.6278 19.8488 11.7202 20.2347 11.9048C20.623 12.0871 20.9248 12.3404 21.1403 12.6648C21.3557 12.9891 21.4634 13.3608 21.4634 13.7798C21.4634 14.0545 21.409 14.3255 21.3001 14.593C21.1935 14.8606 21.003 15.1577 20.7283 15.4844C20.4537 15.8087 20.0666 16.1982 19.5671 16.6527L18.5053 17.6932V17.7429H21.5593V19H16.3746ZM24.0584 17.4304L24.062 15.6158H24.2821L26.0293 13.5455H27.7658L25.4185 16.2869H25.0598L24.0584 17.4304ZM22.6877 19V11.7273H24.2005V19H22.6877ZM26.0968 19L24.4917 16.6243L25.5002 15.5554L27.8688 19H26.0968Z" fill="white"/>
</svg>
