<svg width="20" height="18" viewBox="0 0 20 18" fill="none" xmlns="http://www.w3.org/2000/svg">
<path d="M1.94444 17.5C1.40972 17.5 0.951968 17.3096 0.571181 16.9288C0.190394 16.548 0 16.0903 0 15.5556V1.94444C0 1.40972 0.190394 0.951967 0.571181 0.57118C0.951968 0.190393 1.40972 0 1.94444 0H17.5C18.0347 0 18.4925 0.190393 18.8733 0.57118C19.2541 0.951967 19.4444 1.40972 19.4444 1.94444V15.5556C19.4444 16.0903 19.2541 16.548 18.8733 16.9288C18.4925 17.3096 18.0347 17.5 17.5 17.5H1.94444ZM1.94444 15.5556H17.5V1.94444H1.94444V15.5556ZM2.91667 13.6111H7.77778V11.6667H2.91667V13.6111ZM12.2014 11.6667L17.0139 6.85417L15.6285 5.46875L12.2014 8.92014L10.816 7.53472L9.45486 8.92014L12.2014 11.6667ZM2.91667 9.72222H7.77778V7.77778H2.91667V9.72222ZM2.91667 5.83333H7.77778V3.88889H2.91667V5.83333Z" fill="#0058BD"/>
</svg>
