<svg width="22" height="18" viewBox="0 0 22 18" fill="none" xmlns="http://www.w3.org/2000/svg">
<path d="M2.58865 0.527832L20.8609 16.9295" stroke="#727785" stroke-width="1.75" stroke-linecap="round" stroke-linejoin="round"/>
<path d="M9.93986 4.29413C10.1799 4.23063 10.4337 4.19888 10.7012 4.19888C11.9373 4.19888 12.9888 4.62829 13.8557 5.48712C14.7225 6.34594 15.1559 7.38994 15.1559 8.61913C15.1559 8.88896 15.1237 9.14457 15.0592 9.38596" stroke="#727785" stroke-width="1.75" stroke-linecap="round" stroke-linejoin="round"/>
<path d="M6.62189 6.91492C6.36382 7.4226 6.23479 7.9906 6.23479 8.6189C6.23479 9.8481 6.6682 10.8921 7.53503 11.7509C8.40186 12.6097 9.45725 13.0392 10.7012 13.0392C11.336 13.0392 11.9103 12.9089 12.424 12.6483" stroke="#727785" stroke-width="1.75" stroke-linecap="round" stroke-linejoin="round"/>
<path d="M18.1544 14.4968C16.1431 15.8049 13.6587 16.459 10.7012 16.459C8.30381 16.459 6.1169 15.7969 4.14048 14.473C2.16407 13.149 0.750244 11.3977 0 9.21903C0.369032 8.14514 0.915941 7.16555 1.64073 6.28027" stroke="#727785" stroke-width="1.75" stroke-linecap="round" stroke-linejoin="round"/>
<path d="M7.62793 1.22062C8.59129 0.874691 9.61573 0.701721 10.7012 0.701721C13.0985 0.701721 15.2855 1.3638 17.2619 2.68776C19.2383 4.01173 20.6522 5.76303 21.4024 7.94172C20.7259 9.90563 19.6433 11.5577 18.1544 12.898" stroke="#727785" stroke-width="1.75" stroke-linecap="round" stroke-linejoin="round"/>
</svg>
