<svg width="22" height="22" viewBox="0 0 22 22" fill="none" xmlns="http://www.w3.org/2000/svg">
<path d="M19.9306 9.72225L19.3229 8.38544L17.9861 7.7778L19.3229 7.17017L19.9306 5.83336L20.5382 7.17017L21.875 7.7778L20.5382 8.38544L19.9306 9.72225ZM17.0139 5.83336L16.0903 3.8403L14.0972 2.91669L16.0903 1.99308L17.0139 2.67625e-05L17.9375 1.99308L19.9306 2.91669L17.9375 3.8403L17.0139 5.83336ZM7.29167 21.3889C7.29167 21.3889 7.15799 21.3889 6.89063 21.3889C6.62326 21.3889 6.29919 21.1985 5.9184 20.8177C5.53762 20.4369 5.34722 19.9792 5.34722 19.4445H9.23611C9.23611 19.9792 9.04572 20.4369 8.66493 20.8177C8.28414 21.1985 7.82639 21.3889 7.29167 21.3889ZM3.40278 18.4722V16.5278H11.1806V18.4722H3.40278ZM3.64583 15.5556C2.52778 14.8912 1.64063 14 0.984375 12.882C0.328125 11.7639 0 10.5486 0 9.23614C0 7.21067 0.708912 5.48903 2.12674 4.07121C3.54456 2.65338 5.2662 1.94447 7.29167 1.94447C9.31713 1.94447 11.0388 2.65338 12.4566 4.07121C13.8744 5.48903 14.5833 7.21067 14.5833 9.23614C14.5833 10.5486 14.2552 11.7639 13.599 12.882C12.9427 14 12.0556 14.8912 10.9375 15.5556H3.64583ZM4.22917 13.6111H10.3542C11.0833 13.0926 11.6464 12.4526 12.0434 11.691C12.4404 10.9294 12.6389 10.1111 12.6389 9.23614C12.6389 7.7454 12.1204 6.48151 11.0833 5.44447C10.0463 4.40743 8.78241 3.88892 7.29167 3.88892C5.80093 3.88892 4.53704 4.40743 3.5 5.44447C2.46296 6.48151 1.94444 7.7454 1.94444 9.23614C1.94444 10.1111 2.14294 10.9294 2.53993 11.691C2.93692 12.4526 3.5 13.0926 4.22917 13.6111Z" fill="#0058BD"/>
</svg>
