<svg width="20" height="28" viewBox="0 0 20 28" fill="none" xmlns="http://www.w3.org/2000/svg">
<path d="M2.5 15.3125V21.6875V25V2.5V5.8125V12.1875V15.3125ZM2.5 27.5C1.8125 27.5 1.22396 27.2552 0.734375 26.7656C0.244792 26.276 0 25.6875 0 25V2.5C0 1.8125 0.244792 1.22396 0.734375 0.734375C1.22396 0.244792 1.8125 0 2.5 0H15C15.6875 0 16.276 0.244792 16.7656 0.734375C17.2552 1.22396 17.5 1.8125 17.5 2.5V5H15V2.5H2.5V25H15V22.5H17.5V25C17.5 25.6875 17.2552 26.276 16.7656 26.7656C16.276 27.2552 15.6875 27.5 15 27.5H2.5ZM8.75 6.25C8.75 6.25 8.83854 6.25 9.01562 6.25C9.19271 6.25 9.40104 6.13021 9.64062 5.89062C9.88021 5.65104 10 5.35417 10 5C10 4.64583 9.88021 4.34896 9.64062 4.10938C9.40104 3.86979 9.10417 3.75 8.75 3.75C8.39583 3.75 8.09896 3.86979 7.85938 4.10938C7.61979 4.34896 7.5 4.64583 7.5 5C7.5 5.35417 7.61979 5.65104 7.85938 5.89062C8.09896 6.13021 8.39583 6.25 8.75 6.25ZM14.1562 17.3125L12.3438 15.5C12.5938 15.2708 12.7865 15.0052 12.9219 14.7031C13.0573 14.401 13.125 14.0833 13.125 13.75C13.125 13.4167 13.0573 13.099 12.9219 12.7969C12.7865 12.4948 12.5938 12.2292 12.3438 12L14.1562 10.1875C14.6354 10.6667 15 11.2135 15.25 11.8281C15.5 12.4427 15.625 13.0833 15.625 13.75C15.625 14.4167 15.5 15.0573 15.25 15.6719C15 16.2865 14.6354 16.8333 14.1562 17.3125ZM17.2188 20.375L15.4688 18.625C16.1146 17.9792 16.6146 17.2396 16.9688 16.4062C17.3229 15.5729 17.5 14.6875 17.5 13.75C17.5 12.8125 17.3229 11.9271 16.9688 11.0938C16.6146 10.2604 16.1146 9.52083 15.4688 8.875L17.2188 7.125C18.1146 8 18.8021 9.01042 19.2812 10.1562C19.7604 11.3021 20 12.5 20 13.75C20 15 19.7604 16.1979 19.2812 17.3438C18.8021 18.4896 18.1146 19.5 17.2188 20.375Z" fill="#0058BD"/>
</svg>
