<svg width="16" height="21" viewBox="0 0 16 21" fill="none" xmlns="http://www.w3.org/2000/svg">
<path d="M1.94363 20.4082C1.40914 20.4082 0.951571 20.2179 0.570943 19.8373C0.190314 19.4566 0 18.9991 0 18.4646V8.74639C0 8.21189 0.190314 7.75433 0.570943 7.3737C0.951571 6.99307 1.40914 6.80276 1.94363 6.80276H2.91545V4.85912C2.91545 3.51478 3.38921 2.36884 4.33674 1.42132C5.28426 0.473798 6.43019 3.67016e-05 7.77454 3.67016e-05C9.11889 3.67016e-05 10.2648 0.473798 11.2123 1.42132C12.1599 2.36884 12.6336 3.51478 12.6336 4.85912V6.80276H13.6054C14.1399 6.80276 14.5975 6.99307 14.9781 7.3737C15.3588 7.75433 15.5491 8.21189 15.5491 8.74639V18.4646C15.5491 18.9991 15.3588 19.4566 14.9781 19.8373C14.5975 20.2179 14.1399 20.4082 13.6054 20.4082H1.94363ZM1.94363 18.4646H13.6054V8.74639H1.94363V18.4646ZM7.77454 15.5491C7.77454 15.5491 7.90816 15.5491 8.17541 15.5491C8.44266 15.5491 8.7666 15.3588 9.14723 14.9782C9.52786 14.5975 9.71817 14.14 9.71817 13.6055C9.71817 13.071 9.52786 12.6134 9.14723 12.2328C8.7666 11.8522 8.30904 11.6618 7.77454 11.6618C7.24004 11.6618 6.78248 11.8522 6.40185 12.2328C6.02122 12.6134 5.8309 13.071 5.8309 13.6055C5.8309 14.14 6.02122 14.5975 6.40185 14.9782C6.78248 15.3588 7.24004 15.5491 7.77454 15.5491ZM4.85909 6.80276H10.69V4.85912C10.69 4.04928 10.4065 3.36091 9.83965 2.79401C9.27276 2.22712 8.58439 1.94367 7.77454 1.94367C6.96469 1.94367 6.27632 2.22712 5.70943 2.79401C5.14253 3.36091 4.85909 4.04928 4.85909 4.85912V6.80276Z" fill="#0058BD"/>
</svg>
