<svg width="13" height="19" viewBox="0 0 13 19" fill="none" xmlns="http://www.w3.org/2000/svg">
<path d="M1.66667 18.3333C1.20833 18.3333 0.815972 18.1701 0.489583 17.8437C0.163194 17.5173 0 17.1249 0 16.6666V1.66658C0 1.20825 0.163194 0.815891 0.489583 0.489502C0.815972 0.163113 1.20833 -8.2016e-05 1.66667 -8.2016e-05H10C10.4583 -8.2016e-05 10.8507 0.163113 11.1771 0.489502C11.5035 0.815891 11.6667 1.20825 11.6667 1.66658V4.24992C11.9167 4.34714 12.1181 4.49992 12.2708 4.70825C12.4236 4.91658 12.5 5.1527 12.5 5.41658V7.08325C12.5 7.34714 12.4236 7.58325 12.2708 7.79158C12.1181 7.99992 11.9167 8.1527 11.6667 8.24992V16.6666C11.6667 17.1249 11.5035 17.5173 11.1771 17.8437C10.8507 18.1701 10.4583 18.3333 10 18.3333H1.66667ZM1.66667 16.6666H10V1.66658H1.66667V16.6666ZM5.83333 4.16658C5.83333 4.16658 5.89236 4.16658 6.01042 4.16658C6.12847 4.16658 6.26736 4.08672 6.42708 3.927C6.58681 3.76728 6.66667 3.56936 6.66667 3.33325C6.66667 3.09714 6.58681 2.89922 6.42708 2.7395C6.26736 2.57978 6.06944 2.49992 5.83333 2.49992C5.59722 2.49992 5.39931 2.57978 5.23958 2.7395C5.07986 2.89922 5 3.09714 5 3.33325C5 3.56936 5.07986 3.76728 5.23958 3.927C5.39931 4.08672 5.59722 4.16658 5.83333 4.16658Z" fill="#0058BD"/>
</svg>
