<svg width="20" height="20" viewBox="0 0 20 20" fill="none" xmlns="http://www.w3.org/2000/svg">
<path d="M7.09722 19.4445L6.70833 16.3333C6.49769 16.2523 6.29919 16.1551 6.11285 16.0417C5.92651 15.9283 5.74421 15.8067 5.56597 15.6771L2.67361 16.8924L0 12.2743L2.50347 10.3785C2.48727 10.2651 2.47917 10.1557 2.47917 10.0504C2.47917 9.94504 2.47917 9.83566 2.47917 9.72224C2.47917 9.60881 2.47917 9.49943 2.47917 9.39411C2.47917 9.28879 2.48727 9.17941 2.50347 9.06599L0 7.17015L2.67361 2.5521L5.56597 3.76737C5.74421 3.63774 5.93056 3.51622 6.125 3.40279C6.31945 3.28937 6.51389 3.19214 6.70833 3.11112L7.09722 1.32322e-05H12.4444L12.8333 3.11112C13.044 3.19214 13.2425 3.28937 13.4288 3.40279C13.6152 3.51622 13.7975 3.63774 13.9757 3.76737L16.8681 2.5521L19.5417 7.17015L17.0382 9.06599C17.0544 9.17941 17.0625 9.28879 17.0625 9.39411C17.0625 9.49943 17.0625 9.60881 17.0625 9.72224C17.0625 9.83566 17.0625 9.94504 17.0625 10.0504C17.0625 10.1557 17.0463 10.2651 17.0139 10.3785L19.5174 12.2743L16.8438 16.8924L13.9757 15.6771C13.7975 15.8067 13.6111 15.9283 13.4167 16.0417C13.2222 16.1551 13.0278 16.2523 12.8333 16.3333L12.4444 19.4445H7.09722ZM8.79861 17.5H10.7188L11.059 14.9236C11.5613 14.794 12.0272 14.6036 12.4566 14.3524C12.886 14.1013 13.2789 13.7975 13.6354 13.441L16.0417 14.4375L16.9896 12.7847L14.8993 11.2049C14.9803 10.978 15.037 10.739 15.0694 10.4879C15.1019 10.2367 15.1181 9.98149 15.1181 9.72224C15.1181 9.46298 15.1019 9.20777 15.0694 8.95661C15.037 8.70545 14.9803 8.46645 14.8993 8.2396L16.9896 6.65974L16.0417 5.00696L13.6354 6.02779C13.2789 5.65511 12.886 5.34318 12.4566 5.09203C12.0272 4.84087 11.5613 4.65048 11.059 4.52085L10.7431 1.94446H8.82292L8.48264 4.52085C7.98032 4.65048 7.51447 4.84087 7.08507 5.09203C6.65567 5.34318 6.26273 5.647 5.90625 6.00349L3.5 5.00696L2.55208 6.65974L4.64236 8.21529C4.56134 8.45835 4.50463 8.7014 4.47222 8.94446C4.43982 9.18751 4.42361 9.44677 4.42361 9.72224C4.42361 9.98149 4.43982 10.2327 4.47222 10.4757C4.50463 10.7188 4.56134 10.9618 4.64236 11.2049L2.55208 12.7847L3.5 14.4375L5.90625 13.4167C6.26273 13.7894 6.65567 14.1013 7.08507 14.3524C7.51447 14.6036 7.98032 14.794 8.48264 14.9236L8.79861 17.5ZM9.81945 13.125C10.7593 13.125 11.5613 12.7928 12.2257 12.1285C12.89 11.4641 13.2222 10.6621 13.2222 9.72224C13.2222 8.78242 12.89 7.98034 12.2257 7.31599C11.5613 6.65163 10.7593 6.31946 9.81945 6.31946C8.86343 6.31946 8.05729 6.65163 7.40104 7.31599C6.74479 7.98034 6.41667 8.78242 6.41667 9.72224C6.41667 10.6621 6.74479 11.4641 7.40104 12.1285C8.05729 12.7928 8.86343 13.125 9.81945 13.125Z" fill="#424753"/>
</svg>
