<svg width="14" height="14" viewBox="0 0 14 14" fill="none" xmlns="http://www.w3.org/2000/svg">
<path d="M6.66667 6.66658C6.66667 6.66658 6.4375 6.66658 5.97917 6.66658C5.52083 6.66658 4.96528 6.3402 4.3125 5.68742C3.65972 5.03464 3.33333 4.24992 3.33333 3.33325C3.33333 2.41658 3.65972 1.63186 4.3125 0.979085C4.96528 0.326307 5.75 -8.2016e-05 6.66667 -8.2016e-05C7.58333 -8.2016e-05 8.36806 0.326307 9.02083 0.979085C9.67361 1.63186 10 2.41658 10 3.33325C10 4.24992 9.67361 5.03464 9.02083 5.68742C8.36806 6.3402 7.58333 6.66658 6.66667 6.66658ZM0 13.3333V10.9999C0 10.5277 0.121528 10.0937 0.364583 9.69784C0.607639 9.302 0.930556 8.99992 1.33333 8.79158C2.19444 8.36103 3.06944 8.03811 3.95833 7.82283C4.84722 7.60756 5.75 7.49992 6.66667 7.49992C7.58333 7.49992 8.48611 7.60756 9.375 7.82283C10.2639 8.03811 11.1389 8.36103 12 8.79158C12.4028 8.99992 12.7257 9.302 12.9688 9.69784C13.2118 10.0937 13.3333 10.5277 13.3333 10.9999V13.3333H0ZM1.66667 11.6666H11.6667V10.9999C11.6667 10.8471 11.6285 10.7083 11.5521 10.5833C11.4757 10.4583 11.375 10.361 11.25 10.2916C10.5 9.91659 9.74306 9.63534 8.97917 9.44784C8.21528 9.26033 7.44444 9.16658 6.66667 9.16658C5.88889 9.16658 5.11806 9.26033 4.35417 9.44784C3.59028 9.63534 2.83333 9.91659 2.08333 10.2916C1.95833 10.361 1.85764 10.4583 1.78125 10.5833C1.70486 10.7083 1.66667 10.8471 1.66667 10.9999V11.6666ZM6.66667 4.99992C6.66667 4.99992 6.78125 4.99992 7.01042 4.99992C7.23958 4.99992 7.51736 4.83672 7.84375 4.51033C8.17014 4.18395 8.33333 3.79158 8.33333 3.33325C8.33333 2.87492 8.17014 2.48256 7.84375 2.15617C7.51736 1.82978 7.125 1.66658 6.66667 1.66658C6.20833 1.66658 5.81597 1.82978 5.48958 2.15617C5.16319 2.48256 5 2.87492 5 3.33325C5 3.79158 5.16319 4.18395 5.48958 4.51033C5.81597 4.83672 6.20833 4.99992 6.66667 4.99992Z" fill="#0058BD"/>
</svg>
