<svg width="20" height="20" viewBox="0 0 20 20" fill="none" xmlns="http://www.w3.org/2000/svg">
<path d="M9.67361 15.5556C9.67361 15.5556 9.75868 15.5556 9.92882 15.5556C10.099 15.5556 10.3015 15.4381 10.5365 15.2031C10.7714 14.9682 10.8889 14.6806 10.8889 14.3403C10.8889 14 10.7714 13.7124 10.5365 13.4774C10.3015 13.2425 10.0139 13.125 9.67361 13.125C9.33333 13.125 9.04572 13.2425 8.81076 13.4774C8.57581 13.7124 8.45833 14 8.45833 14.3403C8.45833 14.6806 8.57581 14.9682 8.81076 15.2031C9.04572 15.4381 9.33333 15.5556 9.67361 15.5556ZM8.79861 11.8125H10.5972C10.5972 11.2778 10.658 10.8565 10.7795 10.5486C10.901 10.2408 11.2454 9.81946 11.8125 9.28474C12.2338 8.86344 12.566 8.4624 12.809 8.08161C13.0521 7.70082 13.1736 7.24307 13.1736 6.70835C13.1736 5.80094 12.8414 5.10418 12.1771 4.61807C11.5127 4.13196 10.7269 3.8889 9.81944 3.8889C8.89583 3.8889 8.14641 4.13196 7.57118 4.61807C6.99595 5.10418 6.59491 5.68751 6.36806 6.36807L7.97222 7.00001C8.05324 6.70835 8.23553 6.39237 8.5191 6.0521C8.80266 5.71182 9.23611 5.54168 9.81944 5.54168C10.338 5.54168 10.7269 5.68346 10.9861 5.96703C11.2454 6.25059 11.375 6.56251 11.375 6.90279C11.375 7.22686 11.2778 7.53068 11.0833 7.81425C10.8889 8.09781 10.6458 8.36112 10.3542 8.60418C9.6412 9.23612 9.2037 9.71413 9.04167 10.0382C8.87963 10.3623 8.79861 10.9537 8.79861 11.8125ZM9.72222 19.4445C8.37731 19.4445 7.11343 19.1892 5.93056 18.6788C4.74769 18.1684 3.71875 17.4757 2.84375 16.6007C1.96875 15.7257 1.27604 14.6968 0.765625 13.5139C0.255208 12.331 0 11.0671 0 9.72224C0 8.37733 0.255208 7.11344 0.765625 5.93057C1.27604 4.7477 1.96875 3.71876 2.84375 2.84376C3.71875 1.96876 4.74769 1.27605 5.93056 0.765638C7.11343 0.255222 8.37731 1.33514e-05 9.72222 1.33514e-05C11.0671 1.33514e-05 12.331 0.255222 13.5139 0.765638C14.6968 1.27605 15.7257 1.96876 16.6007 2.84376C17.4757 3.71876 18.1684 4.7477 18.6788 5.93057C19.1892 7.11344 19.4444 8.37733 19.4444 9.72224C19.4444 11.0671 19.1892 12.331 18.6788 13.5139C18.1684 14.6968 17.4757 15.7257 16.6007 16.6007C15.7257 17.4757 14.6968 18.1684 13.5139 18.6788C12.331 19.1892 11.0671 19.4445 9.72222 19.4445ZM9.72222 17.5C11.8935 17.5 13.7326 16.7465 15.2396 15.2396C16.7465 13.7327 17.5 11.8935 17.5 9.72224C17.5 7.55094 16.7465 5.71182 15.2396 4.20487C13.7326 2.69793 11.8935 1.94446 9.72222 1.94446C7.55093 1.94446 5.71181 2.69793 4.20486 4.20487C2.69792 5.71182 1.94444 7.55094 1.94444 9.72224C1.94444 11.8935 2.69792 13.7327 4.20486 15.2396C5.71181 16.7465 7.55093 17.5 9.72222 17.5Z" fill="#424753"/>
</svg>
