<svg width="22" height="15" viewBox="0 0 22 15" fill="none" xmlns="http://www.w3.org/2000/svg">
<path d="M10.6944 11.6667C10.6944 11.6667 10.9983 11.6667 11.6059 11.6667C12.2135 11.6667 12.9427 11.2414 13.7934 10.3907C14.6441 9.53997 15.0694 8.50699 15.0694 7.29171C15.0694 6.07643 14.6441 5.04344 13.7934 4.19275C12.9427 3.34205 11.9097 2.91671 10.6944 2.91671C9.47917 2.91671 8.44618 3.34205 7.59549 4.19275C6.74479 5.04344 6.31944 6.07643 6.31944 7.29171C6.31944 8.50699 6.74479 9.53997 7.59549 10.3907C8.44618 11.2414 9.47917 11.6667 10.6944 11.6667ZM10.6944 9.91671C10.6944 9.91671 10.5122 9.91671 10.1476 9.91671C9.78299 9.91671 9.34549 9.6615 8.83507 9.15108C8.32465 8.64067 8.06944 8.02087 8.06944 7.29171C8.06944 6.56254 8.32465 5.94275 8.83507 5.43233C9.34549 4.92192 9.96528 4.66671 10.6944 4.66671C11.4236 4.66671 12.0434 4.92192 12.5538 5.43233C13.0642 5.94275 13.3194 6.56254 13.3194 7.29171C13.3194 8.02087 13.0642 8.64067 12.5538 9.15108C12.0434 9.6615 11.4236 9.91671 10.6944 9.91671ZM10.6944 14.5834C10.6944 14.5834 10.103 14.5834 8.92014 14.5834C7.73727 14.5834 6.17361 13.9231 4.22917 12.6025C2.28472 11.2819 0.875 9.51161 0 7.29171C0.875 5.0718 2.28472 3.30155 4.22917 1.98094C6.17361 0.660341 8.3287 4.04418e-05 10.6944 4.04418e-05C13.0602 4.04418e-05 15.2153 0.660341 17.1597 1.98094C19.1042 3.30155 20.5139 5.0718 21.3889 7.29171C20.5139 9.51161 19.1042 11.2819 17.1597 12.6025C15.2153 13.9231 13.0602 14.5834 10.6944 14.5834ZM10.6944 12.6389C10.6944 12.6389 11.1522 12.6389 12.0677 12.6389C12.9832 12.6389 14.2066 12.1569 15.7378 11.1927C17.2691 10.2286 18.4398 8.92828 19.25 7.29171C18.4398 5.65513 17.2691 4.35479 15.7378 3.39067C14.2066 2.42655 12.5255 1.94448 10.6944 1.94448C8.86343 1.94448 7.18229 2.42655 5.65104 3.39067C4.11979 4.35479 2.94907 5.65513 2.13889 7.29171C2.94907 8.92828 4.11979 10.2286 5.65104 11.1927C7.18229 12.1569 8.86343 12.6389 10.6944 12.6389Z" fill="#424753"/>
</svg>
