<svg width="16" height="20" viewBox="0 0 16 20" fill="none" xmlns="http://www.w3.org/2000/svg">
<path d="M7.77454 19.4364C5.52316 18.8695 3.66456 17.5778 2.19874 15.5613C0.732912 13.5448 0 11.3055 0 8.84359V2.9155L7.77454 5.09024e-05L15.5491 2.9155V8.84359C15.5491 11.3055 14.8162 13.5448 13.3503 15.5613C11.8845 17.5778 10.0259 18.8695 7.77454 19.4364ZM7.77454 17.3956C9.34564 16.9097 10.6576 15.95 11.7104 14.5166C12.7632 13.0831 13.3787 11.4837 13.5569 9.71823H7.77454V2.06516L1.94363 4.25175V8.84359C1.94363 9.02176 1.94363 9.16753 1.94363 9.28091C1.94363 9.39429 1.95983 9.54006 1.99223 9.71823H7.77454V17.3956Z" fill="#64748B"/>
</svg>
