<svg width="16" height="20" viewBox="0 0 16 20" fill="none" xmlns="http://www.w3.org/2000/svg">
<path d="M7.77778 13.6111C9.43056 12.1204 10.4919 11.0712 10.9618 10.4636C11.4317 9.85592 11.6667 9.25233 11.6667 8.65279C11.6667 8.06946 11.456 7.56714 11.0347 7.14585C10.6134 6.72455 10.1111 6.5139 9.52778 6.5139C9.1875 6.5139 8.85938 6.58277 8.5434 6.7205C8.22743 6.85823 7.97222 7.04862 7.77778 7.29168C7.58333 7.04862 7.33218 6.85823 7.02431 6.7205C6.71644 6.58277 6.38426 6.5139 6.02778 6.5139C5.44444 6.5139 4.94213 6.72455 4.52083 7.14585C4.09954 7.56714 3.88889 8.06946 3.88889 8.65279C3.88889 8.96066 3.9294 9.24423 4.01042 9.50349C4.09144 9.76274 4.26968 10.0666 4.54514 10.4149C4.8206 10.7633 5.21354 11.1887 5.72396 11.691C6.23438 12.1933 6.91898 12.8333 7.77778 13.6111ZM7.77778 19.4445C5.52546 18.8773 3.66609 17.5851 2.19965 15.5677C0.733218 13.5504 0 11.3102 0 8.84724V2.91668L7.77778 1.33514e-05L15.5556 2.91668V8.84724C15.5556 11.3102 14.8223 13.5504 13.3559 15.5677C11.8895 17.5851 10.0301 18.8773 7.77778 19.4445ZM7.77778 17.4028C9.46296 16.8681 10.8565 15.7986 11.9583 14.1945C13.0602 12.5903 13.6111 10.8079 13.6111 8.84724V4.25349L7.77778 2.06598L1.94444 4.25349V8.84724C1.94444 10.8079 2.49537 12.5903 3.59722 14.1945C4.69907 15.7986 6.09259 16.8681 7.77778 17.4028Z" fill="#0058BD"/>
</svg>
