<svg width="16" height="20" viewBox="0 0 16 20" fill="none" xmlns="http://www.w3.org/2000/svg">
<path d="M6.75694 13.1736L12.25 7.68057L10.8646 6.29515L6.75694 10.4028L4.71528 8.36112L3.32986 9.74654L6.75694 13.1736ZM7.77778 19.4445C5.52546 18.8773 3.66609 17.5851 2.19965 15.5677C0.733218 13.5504 0 11.3102 0 8.84724V2.91668L7.77778 1.32322e-05L15.5556 2.91668V8.84724C15.5556 11.3102 14.8223 13.5504 13.3559 15.5677C11.8895 17.5851 10.0301 18.8773 7.77778 19.4445ZM7.77778 17.4028C9.46296 16.8681 10.8565 15.7986 11.9583 14.1945C13.0602 12.5903 13.6111 10.8079 13.6111 8.84724V4.25349L7.77778 2.06599L1.94444 4.25349V8.84724C1.94444 10.8079 2.49537 12.5903 3.59722 14.1945C4.69907 15.7986 6.09259 16.8681 7.77778 17.4028Z" fill="#64748B"/>
</svg>
