<svg width="20" height="20" viewBox="0 0 20 20" fill="none" xmlns="http://www.w3.org/2000/svg">
<path d="M8.36111 14.1945L15.2153 7.34029L13.8542 5.97918L8.36111 11.4722L5.59028 8.7014L4.22917 10.0625L8.36111 14.1945ZM9.72222 19.4445C8.37731 19.4445 7.11343 19.1892 5.93056 18.6788C4.74769 18.1684 3.71875 17.4757 2.84375 16.6007C1.96875 15.7257 1.27604 14.6968 0.765625 13.5139C0.255208 12.331 0 11.0671 0 9.72224C0 8.37733 0.255208 7.11344 0.765625 5.93057C1.27604 4.7477 1.96875 3.71876 2.84375 2.84376C3.71875 1.96876 4.74769 1.27605 5.93056 0.765638C7.11343 0.255222 8.37731 1.33514e-05 9.72222 1.33514e-05C11.0671 1.33514e-05 12.331 0.255222 13.5139 0.765638C14.6968 1.27605 15.7257 1.96876 16.6007 2.84376C17.4757 3.71876 18.1684 4.7477 18.6788 5.93057C19.1892 7.11344 19.4444 8.37733 19.4444 9.72224C19.4444 11.0671 19.1892 12.331 18.6788 13.5139C18.1684 14.6968 17.4757 15.7257 16.6007 16.6007C15.7257 17.4757 14.6968 18.1684 13.5139 18.6788C12.331 19.1892 11.0671 19.4445 9.72222 19.4445ZM9.72222 17.5C11.8935 17.5 13.7326 16.7465 15.2396 15.2396C16.7465 13.7327 17.5 11.8935 17.5 9.72224C17.5 7.55094 16.7465 5.71182 15.2396 4.20487C13.7326 2.69793 11.8935 1.94446 9.72222 1.94446C7.55093 1.94446 5.71181 2.69793 4.20486 4.20487C2.69792 5.71182 1.94444 7.55094 1.94444 9.72224C1.94444 11.8935 2.69792 13.7327 4.20486 15.2396C5.71181 16.7465 7.55093 17.5 9.72222 17.5Z" fill="#006E2C"/>
</svg>
