<svg width="20" height="20" viewBox="0 0 20 20" fill="none" xmlns="http://www.w3.org/2000/svg">
<path d="M3.7415 14.6744C4.56754 14.0428 5.49077 13.5447 6.51118 13.1803C7.53159 12.8158 8.60058 12.6336 9.71817 12.6336C10.8358 12.6336 11.9048 12.8158 12.9252 13.1803C13.9456 13.5447 14.8688 14.0428 15.6949 14.6744C16.2617 14.0104 16.7031 13.2572 17.019 12.415C17.3348 11.5727 17.4927 10.6738 17.4927 9.71818C17.4927 7.56398 16.7355 5.72968 15.2211 4.21526C13.7067 2.70085 11.8724 1.94364 9.71817 1.94364C7.56398 1.94364 5.72967 2.70085 4.21526 4.21526C2.70084 5.72968 1.94363 7.56398 1.94363 9.71818C1.94363 10.6738 2.10156 11.5727 2.4174 12.415C2.73324 13.2572 3.1746 14.0104 3.7415 14.6744ZM9.71817 10.69C9.71817 10.69 9.47927 10.69 9.00146 10.69C8.52365 10.69 7.95676 10.362 7.30078 9.70603C6.6448 9.05006 6.31681 8.24426 6.31681 7.28864C6.31681 6.33302 6.6448 5.52722 7.30078 4.87124C7.95676 4.21526 8.76256 3.88728 9.71817 3.88728C10.6738 3.88728 11.4796 4.21526 12.1356 4.87124C12.7915 5.52722 13.1195 6.33302 13.1195 7.28864C13.1195 8.24426 12.7915 9.05006 12.1356 9.70603C11.4796 10.362 10.6738 10.69 9.71817 10.69ZM9.71817 19.4364C8.37383 19.4364 7.11047 19.1813 5.92809 18.671C4.74571 18.1608 3.7172 17.4684 2.84257 16.5938C1.96793 15.7192 1.27551 14.6906 0.765306 13.5083C0.255102 12.3259 0 11.0625 0 9.71818C0 8.37383 0.255102 7.11047 0.765306 5.92809C1.27551 4.74571 1.96793 3.71721 2.84257 2.84257C3.7172 1.96794 4.74571 1.27552 5.92809 0.765312C7.11047 0.255108 8.37383 5.72205e-06 9.71817 5.72205e-06C11.0625 5.72205e-06 12.3259 0.255108 13.5083 0.765312C14.6906 1.27552 15.7191 1.96794 16.5938 2.84257C17.4684 3.71721 18.1608 4.74571 18.671 5.92809C19.1812 7.11047 19.4363 8.37383 19.4363 9.71818C19.4363 11.0625 19.1812 12.3259 18.671 13.5083C18.1608 14.6906 17.4684 15.7192 16.5938 16.5938C15.7191 17.4684 14.6906 18.1608 13.5083 18.671C12.3259 19.1813 11.0625 19.4364 9.71817 19.4364ZM9.71817 17.4927C9.71817 17.4927 9.93279 17.4927 10.362 17.4927C10.7912 17.4927 11.3865 17.3672 12.1477 17.1161C12.909 16.8651 13.6054 16.5047 14.2371 16.035C13.6054 15.5653 12.909 15.2049 12.1477 14.9538C11.3865 14.7028 10.5766 14.5773 9.71817 14.5773C8.85974 14.5773 8.04989 14.7028 7.28863 14.9538C6.52737 15.2049 5.8309 15.5653 5.19922 16.035C5.8309 16.5047 6.52737 16.8651 7.28863 17.1161C8.04989 17.3672 8.85974 17.4927 9.71817 17.4927ZM9.71817 8.74636C9.71817 8.74636 9.82346 8.74636 10.034 8.74636C10.2446 8.74636 10.4875 8.60869 10.7629 8.33334C11.0382 8.05799 11.1759 7.70976 11.1759 7.28864C11.1759 6.86752 11.0382 6.51928 10.7629 6.24393C10.4875 5.96858 10.1393 5.83091 9.71817 5.83091C9.29705 5.83091 8.94882 5.96858 8.67347 6.24393C8.39812 6.51928 8.26045 6.86752 8.26045 7.28864C8.26045 7.70976 8.39812 8.05799 8.67347 8.33334C8.94882 8.60869 9.29705 8.74636 9.71817 8.74636Z" fill="#0058BD"/>
</svg>
